{"title":"Mercury Rising-720p MP4 AAC x264 BRRip 1998-CC","uid":7995189,"size":3307511497,"categoryP":"video","categoryS":"hd___movies","magnet":"?xt=urn:btih:24374dd672aa25a436c3e08d3003c4fceb43f42d&amp;dn=Mercury+Rising-720p+MP4+AAC+x264+BRRip+1998-CC&amp;tr=udp%3A%2F%2Ftracker.openbittorrent.com%3A80&amp;tr=udp%3A%2F%2Fopen.demonii.com%3A1337&amp;tr=udp%3A%2F%2Ftracker.coppersurfer.tk%3A6969&amp;tr=udp%3A%2F%2Fexodus.desync.com%3A6969","seeders":0,"leechers":3,"uploader":"Caveman44","files":-1,"time":1357593219,"description":" &lt;a href=&quot;http://www.imdb.com/title/tt0120749/&quot; rel=&quot;nofollow&quot; target=&quot;_NEW&quot;&gt;http://www.imdb.com/title/tt0120749/&lt;/a&gt;\n\nSource: Mercury.Rising.1998.720p.BluRay.DTS.x264-PiPicK Thanks!\n\nSubs: Arabic, Brazilian, Bulgarian, Dutch, English, Portuguese and Slovenian.\n\nSample and Screens included.\n\nGeneral\nComplete name                            : Mercury Rising-720p MP4 AAC x264 BRRip 1998-CC.mp4\nFormat                                   : MPEG-4\nFormat profile                           : Base Media\nCodec ID                                 : isom\nFile size                                : 3.05 GiB\nDuration                                 : 1h 51mn\nOverall bit rate mode                    : Variable\nOverall bit rate                         : 3 912 Kbps\nEncoded date                             : UTC 2012-12-29 09:48:04\n\nVideo\nID                                       : 1\nFormat                                   : AVC\nFormat/Info                              : Advanced Video Codec\nFormat profile                           : &lt;a class=&quot;__cf_email__&quot; href=&quot;/cdn-cgi/l/email-protection&quot; data-cfemail=&quot;e2aa8b858aa2aed6ccd3&quot;&gt;[email&amp;#160;protected]&lt;/a&gt;&lt;script cf-hash='f9e31' type=&quot;text/javascript&quot;&gt;\n/* &lt;![CDATA[ */!function(){try{var t=&quot;currentScript&quot;in document?document.currentScript:function(){for(var t=document.getElementsByTagName(&quot;script&quot;),e=t.length;e--;)if(t[e].getAttribute(&quot;cf-hash&quot;))return t[e]}();if(t&amp;&amp;t.previousSibling){var e,r,n,i,c=t.previousSibling,a=c.getAttribute(&quot;data-cfemail&quot;);if(a){for(e=&quot;&quot;,r=parseInt(a.substr(0,2),16),n=2;a.length-n;n+=2)i=parseInt(a.substr(n,2),16)^r,e+=String.fromCharCode(i);e=document.createTextNode(e),c.parentNode.replaceChild(e,c)}}}catch(u){}}();/* ]]&gt; */&lt;/script&gt;\nFormat settings, CABAC                   : Yes\nFormat settings, ReFrames                : 5 frames\nCodec ID                                 : avc1\nCodec ID/Info                            : Advanced Video Coding\nDuration                                 : 1h 51mn\nSource duration                          : 1h 51mn\nBit rate                                 : 3 576 Kbps\nMaximum bit rate                         : 18.9 Mbps\nWidth                                    : 1 280 pixels\nHeight                                   : 544 pixels\nDisplay aspect ratio                     : 2.35:1\nFrame rate mode                          : Variable\nFrame rate                               : 23.976 fps\nMinimum frame rate                       : 19.048 fps\nMaximum frame rate                       : 24.390 fps\nColor space                              : YUV\nChroma subsampling                       : 4:2:0\nBit depth                                : 8 bits\nScan type                                : Progressive\nBits/(Pixel*Frame)                       : 0.214\nStream size                              : 2.74 GiB (90%)\nSource stream size                       : 2.74 GiB (90%)\nWriting library                          : x264 core 112\n\nAudio\nID                                       : 2\nFormat                                   : AAC\nFormat/Info                              : Advanced Audio Codec\nFormat profile                           : LC\nCodec ID                                 : 40\nDuration                                 : 1h 51mn\nBit rate mode                            : Variable\nBit rate                                 : 384 Kbps\nMaximum bit rate                         : 605 Kbps\nChannel(s)                               : 6 channels\nChannel positions                        : Front: L C R, Side: L R, LFE\nSampling rate                            : 48.0 KHz\nCompression mode                         : Lossy\nDelay relative to video                  : 83ms\nStream size                              : 306 MiB (10%)\nLanguage                                 : English\n\nEnjoy...\n\nRequested by iamharski \n\nComing soon: Apocalypse Hitler, S.Darko, Domino, Twilight Samurai and more..","torrent":{"xt":"urn:btih:24374dd672aa25a436c3e08d3003c4fceb43f42d","amp;dn":"Mercury+Rising-720p+MP4+AAC+x264+BRRip+1998-CC","amp;tr":["udp%3A%2F%2Ftracker.openbittorrent.com%3A80","udp%3A%2F%2Fopen.demonii.com%3A1337","udp%3A%2F%2Ftracker.coppersurfer.tk%3A6969","udp%3A%2F%2Fexodus.desync.com%3A6969"],"infoHash":"24374dd672aa25a436c3e08d3003c4fceb43f42d","infoHashBuffer":{"type":"Buffer","data":[36,55,77,214,114,170,37,164,54,195,224,141,48,3,196,252,235,67,244,45]},"announce":[],"urlList":[]}}